<svg xmlns="http://www.w3.org/2000/svg" width="3780" height="1654" viewBox="0 0 3780 1654" version="1.1"><path d="M 3388.725 352.566 C 3363.656 358.640, 3343.730 381.532, 3341.365 406.978 L 3340.713 414 3210.106 414.029 L 3079.500 414.058 2931.500 570.564 C 2850.100 656.642, 2780.465 730.381, 2776.756 734.428 L 2770.011 741.787 2924.725 905.394 L 3079.438 1069 3130.719 1069 L 3182 1069 3182 1054.500 C 3182 1040.667, 3182.092 1040, 3184 1040 C 3185.226 1040, 3186.012 1039.323, 3186.032 1038.250 C 3186.049 1037.287, 3186.724 1035.626, 3187.532 1034.559 C 3188.339 1033.491, 3189 1031.219, 3189 1029.509 C 3189 1027.799, 3189.510 1025.890, 3190.133 1025.267 C 3190.756 1024.644, 3190.995 1023.429, 3190.664 1022.567 C 3190.151 1021.229, 3187.573 1021, 3173.031 1021 C 3163.664 1021, 3156 1020.663, 3156 1020.250 C 3156 1019.837, 3153.638 1019.472, 3150.750 1019.439 C 3147.863 1019.405, 3135.993 1019.273, 3124.373 1019.145 C 3112.753 1019.017, 3102.991 1018.658, 3102.681 1018.347 C 3102.113 1017.780, 3096.970 1017.506, 3080.691 1017.178 C 3074.700 1017.057, 3072.095 1016.656, 3072.547 1015.925 C 3072.986 1015.214, 3075.653 1015.078, 3080.403 1015.523 C 3084.512 1015.908, 3091.646 1015.681, 3097.047 1014.993 C 3102.246 1014.331, 3112.800 1013.615, 3120.500 1013.402 C 3136.948 1012.947, 3143.904 1012.430, 3144.733 1011.601 C 3145.063 1011.270, 3152.233 1011, 3160.667 1011 C 3171.337 1011, 3176 1010.659, 3176 1009.878 C 3176 1009.126, 3176.521 1009.188, 3177.576 1010.063 C 3178.766 1011.051, 3179.331 1011.083, 3179.880 1010.195 C 3180.296 1009.521, 3183.575 1008.908, 3187.553 1008.759 L 3194.500 1008.500 3194.811 1004.748 C 3194.981 1002.684, 3195.733 999.815, 3196.481 998.373 C 3197.230 996.931, 3197.603 995.129, 3197.311 994.368 C 3197.019 993.607, 3197.548 991.813, 3198.486 990.382 C 3199.423 988.950, 3199.985 986.704, 3199.734 985.391 C 3199.483 984.077, 3199.876 982.214, 3200.607 981.251 C 3201.338 980.288, 3201.951 977.813, 3201.968 975.750 C 3201.986 973.688, 3202.450 972, 3203 972 C 3204.903 972, 3203.991 970.231, 3201.750 969.575 C 3197.940 968.461, 3190.382 968.019, 3167 967.543 C 3154.625 967.291, 3143.150 966.776, 3141.500 966.400 C 3139.850 966.023, 3127.700 965.627, 3114.500 965.518 C 3089.996 965.317, 3077.156 964.410, 3078.659 962.985 C 3079.454 962.231, 3088.228 961.759, 3127 960.386 C 3136.075 960.064, 3143.983 959.407, 3144.574 958.924 C 3145.212 958.403, 3146.141 958.541, 3146.865 959.265 C 3147.823 960.223, 3148.260 960.197, 3148.910 959.146 C 3149.543 958.122, 3153.140 957.832, 3164.307 957.907 C 3173.322 957.968, 3179.121 957.613, 3179.515 956.976 C 3180.232 955.815, 3182.473 955.670, 3196.096 955.908 C 3206.940 956.097, 3208.411 955.323, 3208.194 949.549 C 3208.124 947.678, 3208.718 945.649, 3209.534 944.972 C 3210.361 944.286, 3211 942.064, 3211 939.878 C 3211 937.745, 3211.450 936, 3212 936 C 3212.550 936, 3213 934.227, 3213 932.059 C 3213 929.891, 3213.450 927.840, 3214 927.500 C 3214.550 927.160, 3215 925.199, 3215 923.141 C 3215 921.083, 3215.540 918.860, 3216.200 918.200 C 3217.588 916.812, 3217.946 916.879, 3207 916.483 C 3202.875 916.334, 3196.800 915.881, 3193.500 915.476 C 3190.200 915.071, 3178.275 914.577, 3167 914.378 C 3155.725 914.178, 3143.350 913.732, 3139.500 913.387 C 3135.650 913.042, 3121.025 912.589, 3107 912.381 C 3092.975 912.173, 3080.825 911.722, 3080 911.378 C 3076.841 910.063, 3084.794 909.018, 3098.749 908.916 C 3106.586 908.858, 3113.191 908.500, 3113.426 908.119 C 3113.862 907.415, 3118.269 907.114, 3137 906.512 C 3142.775 906.326, 3149.525 905.896, 3152 905.557 C 3154.475 905.218, 3162.800 904.733, 3170.500 904.480 C 3186.322 903.960, 3190.758 903.576, 3191.687 902.646 C 3192.043 902.291, 3198.127 902, 3205.208 902 C 3216.506 902, 3218.335 901.766, 3220.137 900.087 C 3221.443 898.870, 3221.972 897.487, 3221.590 896.285 C 3221.260 895.245, 3221.653 893.519, 3222.464 892.448 C 3223.274 891.376, 3223.951 888.839, 3223.968 886.809 C 3223.986 884.779, 3224.450 882.840, 3225 882.500 C 3225.550 882.160, 3226 880.109, 3226 877.941 C 3226 875.773, 3226.450 874, 3227 874 C 3227.550 874, 3228 871.525, 3228 868.500 L 3228 863 3210.500 863 C 3200.875 863, 3193 862.631, 3193 862.179 C 3193 861.728, 3190.637 861.668, 3187.750 862.046 C 3184.863 862.424, 3182.350 862.343, 3182.167 861.866 C 3181.983 861.390, 3171.971 861, 3159.917 861 C 3146.913 861, 3138 860.618, 3138 860.060 C 3138 859.501, 3127.574 859.086, 3112.225 859.034 C 3087.629 858.952, 3079.113 858.284, 3081.761 856.648 C 3082.411 856.246, 3090.145 855.929, 3098.948 855.943 C 3107.786 855.957, 3116.192 855.497, 3117.719 854.917 C 3119.239 854.339, 3127.687 853.656, 3136.492 853.399 C 3145.296 853.142, 3154.525 852.662, 3157 852.332 C 3159.475 852.002, 3168.137 851.545, 3176.250 851.316 C 3184.363 851.087, 3191 850.504, 3191 850.020 C 3191 849.521, 3192.385 849.537, 3194.199 850.057 C 3196.243 850.643, 3197.619 850.617, 3198.010 849.985 C 3198.351 849.433, 3205.008 848.843, 3213.061 848.651 C 3221.002 848.462, 3228.175 848.059, 3229 847.756 C 3229.825 847.453, 3231.512 846.882, 3232.750 846.486 C 3234.574 845.903, 3235 845.031, 3235 841.883 C 3235 839.748, 3235.450 838, 3236 838 C 3236.550 838, 3237 835.975, 3237 833.500 C 3237 831.025, 3237.450 829, 3238 829 C 3238.550 829, 3239.014 827.313, 3239.032 825.250 C 3239.049 823.188, 3239.693 820.669, 3240.463 819.653 C 3241.233 818.637, 3241.706 817.287, 3241.515 816.653 C 3241.324 816.019, 3240.922 814.366, 3240.622 812.980 C 3240.135 810.728, 3239.567 810.451, 3235.289 810.379 C 3232.655 810.334, 3220.727 810.211, 3208.782 810.105 C 3195.862 809.990, 3186.818 809.514, 3186.456 808.930 C 3186.123 808.389, 3183.746 808.026, 3181.175 808.122 C 3171.513 808.482, 3134.223 807.890, 3133.702 807.368 C 3132.762 806.429, 3109.128 805.491, 3093.750 805.783 C 3085.637 805.937, 3079 805.672, 3079 805.194 C 3079 804.125, 3097.645 802.317, 3112.500 801.945 C 3118.550 801.794, 3125.075 801.632, 3127 801.585 C 3128.925 801.538, 3130.727 801.202, 3131.005 800.837 C 3131.283 800.472, 3139.158 800.060, 3148.505 799.922 C 3157.852 799.783, 3166.010 799.283, 3166.632 798.810 C 3167.255 798.337, 3174.005 797.794, 3181.632 797.603 C 3189.260 797.413, 3197.075 796.976, 3199 796.634 C 3200.925 796.291, 3209.250 795.742, 3217.500 795.413 C 3239.516 794.535, 3239.821 794.512, 3240.609 793.724 C 3241.007 793.326, 3242.833 793, 3244.667 793 C 3247.881 793, 3248 792.859, 3248 789.059 C 3248 786.891, 3248.450 784.840, 3249 784.500 C 3249.550 784.160, 3250 782.164, 3250 780.063 C 3250 777.900, 3250.646 775.709, 3251.490 775.008 C 3252.444 774.217, 3252.761 772.897, 3252.372 771.345 C 3251.978 769.776, 3252.354 768.266, 3253.438 767.068 C 3254.746 765.623, 3254.921 764.481, 3254.237 761.859 L 3253.361 758.500 3245.257 758.856 C 3240.800 759.052, 3236.587 758.863, 3235.895 758.435 C 3234.409 757.517, 3229.444 757.289, 3197.500 756.676 C 3183.311 756.404, 3171.660 755.719, 3169 755 C 3166.053 754.204, 3158.117 753.867, 3146 754.023 C 3120.353 754.353, 3116.978 754.226, 3115.349 752.874 C 3114.302 752.006, 3108.751 751.849, 3094.484 752.287 C 3082.719 752.648, 3074.816 752.511, 3074.464 751.941 C 3074.130 751.401, 3076.142 750.973, 3079.191 750.936 C 3082.111 750.901, 3086.525 750.721, 3089 750.536 C 3091.475 750.351, 3102.764 749.777, 3114.086 749.260 C 3125.408 748.743, 3135.209 747.989, 3135.864 747.584 C 3136.520 747.179, 3143.313 746.888, 3150.960 746.938 C 3159.249 746.993, 3165.113 746.626, 3165.481 746.030 C 3165.821 745.480, 3167.089 745.031, 3168.300 745.032 C 3176.812 745.036, 3202.228 743.901, 3205.500 743.371 C 3210.296 742.595, 3216.020 742.277, 3231.702 741.917 C 3238.191 741.767, 3243.970 741.297, 3244.545 740.871 C 3245.119 740.445, 3248.944 739.962, 3253.045 739.798 L 3260.500 739.500 3260.804 735.328 C 3260.971 733.033, 3261.758 730.616, 3262.554 729.955 C 3263.360 729.286, 3264 727.040, 3264 724.878 C 3264 722.745, 3264.450 721, 3265 721 C 3265.550 721, 3266 719.290, 3266 717.200 C 3266 715.110, 3266.485 712.915, 3267.078 712.322 C 3267.671 711.729, 3268.009 709.951, 3267.828 708.372 L 3267.500 705.500 3248 705.320 C 3221.057 705.071, 3219.104 704.977, 3218.432 703.890 C 3218.081 703.322, 3209.249 702.992, 3196.708 703.079 C 3181.896 703.181, 3175.463 702.890, 3175.202 702.106 C 3174.997 701.491, 3174.441 701.227, 3173.967 701.520 C 3172.254 702.579, 3164 702.966, 3164 701.987 C 3164 701.371, 3155.828 700.963, 3142.250 700.900 C 3130.287 700.845, 3119.375 700.469, 3118 700.064 C 3116.625 699.659, 3114.488 699.693, 3113.250 700.139 C 3111.900 700.626, 3111 700.560, 3111 699.975 C 3111 699.386, 3104.363 698.940, 3094.250 698.848 L 3077.500 698.697 3089.679 697.973 C 3096.377 697.575, 3103.577 696.901, 3105.679 696.475 C 3107.780 696.049, 3114.816 695.799, 3121.313 695.920 C 3129.113 696.065, 3133.602 695.746, 3134.525 694.979 C 3135.416 694.240, 3142.020 693.670, 3152.712 693.409 C 3161.945 693.183, 3171.525 692.710, 3174 692.356 C 3179.140 691.623, 3202.046 690.343, 3225.500 689.479 C 3234.300 689.155, 3242.175 688.613, 3243 688.275 C 3245.297 687.333, 3252.621 686.832, 3261.825 686.989 C 3272.051 687.164, 3275 685.719, 3275 680.536 C 3275 678.656, 3275.450 676.840, 3276 676.500 C 3276.550 676.160, 3277 674.135, 3277 672 C 3277 669.865, 3277.450 667.840, 3278 667.500 C 3278.550 667.160, 3279 665.109, 3279 662.941 C 3279 660.773, 3279.450 659, 3280 659 C 3280.550 659, 3281 657.875, 3281 656.500 C 3281 654.667, 3280.467 654, 3279 654 C 3277.900 654, 3277 653.550, 3277 653 C 3277 652.450, 3275.173 652, 3272.941 652 C 3269.984 652, 3269.074 652.339, 3269.588 653.250 C 3270.152 654.250, 3270.024 654.250, 3268.947 653.250 C 3267.955 652.329, 3261.855 652, 3245.800 652 C 3233.810 652, 3224 651.603, 3224 651.118 C 3224 650.633, 3211.761 650.164, 3196.802 650.076 C 3181.842 649.988, 3169.130 649.567, 3168.552 649.140 C 3167.973 648.713, 3156.025 648.238, 3142 648.085 C 3127.975 647.931, 3116.050 647.511, 3115.500 647.152 C 3114.950 646.794, 3112.250 646.487, 3109.500 646.471 C 3088.475 646.351, 3075.780 645.886, 3076.407 645.260 C 3076.814 644.853, 3083.076 644.374, 3090.323 644.197 C 3103.857 643.865, 3110.122 643.504, 3111 643.007 C 3111.275 642.851, 3117.350 642.621, 3124.500 642.497 C 3131.650 642.373, 3140.425 641.785, 3144 641.189 C 3147.575 640.594, 3158.037 639.977, 3167.250 639.819 C 3176.463 639.660, 3184 639.218, 3184 638.837 C 3184 638.456, 3190.637 637.944, 3198.750 637.699 C 3206.863 637.454, 3215.300 636.969, 3217.500 636.622 C 3219.700 636.274, 3227.800 635.838, 3235.500 635.653 C 3243.200 635.468, 3251.750 634.822, 3254.500 634.218 C 3257.250 633.614, 3265.007 633.092, 3271.739 633.060 C 3285.719 632.992, 3288 632.040, 3288 626.278 C 3288 624.475, 3288.450 623, 3289 623 C 3289.550 623, 3290 620.975, 3290 618.500 C 3290 616.025, 3290.450 614, 3291 614 C 3291.550 614, 3292 612.227, 3292 610.059 C 3292 607.891, 3292.450 605.840, 3293 605.500 C 3293.550 605.160, 3294 604.009, 3294 602.941 C 3294 601.174, 3293.217 600.993, 3285.250 600.919 C 3280.438 600.874, 3275.150 600.672, 3273.500 600.470 C 3265.942 599.544, 3258.031 599.225, 3238.873 599.074 C 3227.528 598.985, 3218.026 598.693, 3217.759 598.426 C 3217.009 597.675, 3200.303 596.802, 3181.500 596.530 C 3172.150 596.394, 3159.775 595.925, 3154 595.486 C 3148.225 595.047, 3135.850 594.616, 3126.500 594.529 C 3106.771 594.344, 3083.168 593.127, 3081 592.184 C 3080.175 591.825, 3086.700 591.229, 3095.500 590.860 C 3104.300 590.491, 3120.500 589.658, 3131.500 589.010 C 3142.500 588.362, 3158.475 587.472, 3167 587.032 C 3175.525 586.592, 3184.525 585.906, 3187 585.508 C 3189.475 585.110, 3197.350 584.642, 3204.500 584.470 C 3219.509 584.107, 3225.095 583.688, 3226.500 582.820 C 3227.050 582.480, 3233.800 582.109, 3241.500 581.994 C 3256.543 581.771, 3259.664 581.573, 3262 580.691 C 3262.825 580.379, 3270.700 579.944, 3279.500 579.724 C 3298.186 579.256, 3301 578.428, 3301 573.399 C 3301 571.594, 3301.450 569.840, 3302 569.500 C 3302.550 569.160, 3303 567.199, 3303 565.141 C 3303 563.083, 3303.526 560.874, 3304.169 560.231 C 3304.812 559.588, 3305.441 557.586, 3305.568 555.781 C 3305.694 553.976, 3306.104 551.554, 3306.477 550.397 C 3307.131 548.374, 3306.746 548.269, 3296.285 547.607 C 3290.306 547.228, 3281.756 547.224, 3277.285 547.597 C 3272.815 547.969, 3268.335 547.948, 3267.329 547.548 C 3264.540 546.441, 3255.530 545.926, 3232.500 545.559 C 3220.950 545.374, 3208.800 544.905, 3205.500 544.515 C 3202.200 544.126, 3190.275 543.655, 3179 543.469 C 3167.725 543.283, 3155.800 542.852, 3152.500 542.511 C 3149.200 542.170, 3139.357 541.712, 3130.627 541.493 C 3087.892 540.422, 3085.369 540.255, 3087.083 538.597 C 3087.540 538.156, 3104.861 537.325, 3132 536.443 C 3141.625 536.130, 3150.625 535.489, 3152 535.019 C 3155.015 533.987, 3154.966 533.991, 3172.500 533.511 C 3188.936 533.061, 3194.121 532.674, 3195.535 531.793 C 3196.104 531.438, 3202.468 531.112, 3209.676 531.069 C 3216.885 531.025, 3225.143 530.542, 3228.028 529.995 C 3230.913 529.448, 3239.437 529, 3246.970 529 C 3254.503 529, 3260.970 528.697, 3261.341 528.326 C 3262.425 527.242, 3266.617 526.974, 3281.665 527.030 C 3290.684 527.064, 3296.071 526.695, 3296.491 526.015 C 3296.854 525.428, 3298.579 524.934, 3300.325 524.918 C 3302.917 524.894, 3307.323 524.604, 3313.250 524.068 C 3313.662 524.031, 3314.014 522.313, 3314.032 520.250 C 3314.049 518.188, 3314.677 515.692, 3315.426 514.704 C 3316.175 513.715, 3316.558 512.026, 3316.276 510.948 C 3315.994 509.871, 3316.325 508.314, 3317.010 507.488 C 3317.696 506.662, 3318.389 504.007, 3318.550 501.589 C 3318.893 496.466, 3318.137 496.036, 3308.750 496.014 C 3305.544 496.006, 3303 495.552, 3303 494.987 C 3303 494.338, 3295.191 493.934, 3281.250 493.862 C 3252.587 493.713, 3250.312 493.633, 3249.416 492.744 C 3248.997 492.328, 3239.210 492.013, 3227.667 492.044 C 3215.667 492.076, 3206.427 491.700, 3206.090 491.165 C 3205.744 490.617, 3203.433 490.551, 3200.500 491.006 C 3197.688 491.442, 3195.354 491.391, 3195.167 490.891 C 3194.983 490.401, 3185.222 490, 3173.476 490 C 3161.729 490, 3151.905 489.655, 3151.645 489.234 C 3151.384 488.813, 3140.220 488.310, 3126.836 488.117 C 3113.451 487.924, 3101.375 487.631, 3100 487.466 C 3098.625 487.302, 3094.800 487.090, 3091.500 486.997 C 3086.241 486.849, 3085.870 486.716, 3088.500 485.921 C 3090.150 485.423, 3097.787 484.984, 3105.471 484.946 C 3113.256 484.908, 3119.979 484.433, 3120.654 483.872 C 3121.320 483.319, 3129.883 482.668, 3139.683 482.425 C 3149.482 482.182, 3159.075 481.721, 3161 481.401 C 3165.561 480.642, 3171.740 480.270, 3186.845 479.846 C 3193.635 479.656, 3199.399 479.163, 3199.654 478.750 C 3199.909 478.337, 3206.766 478, 3214.892 478 C 3223.018 478, 3229.959 477.708, 3230.316 477.351 C 3231.210 476.456, 3236.163 476.073, 3252.500 475.635 C 3260.200 475.429, 3268.075 474.937, 3270 474.543 C 3271.925 474.148, 3279.350 473.680, 3286.500 473.501 C 3293.650 473.323, 3302.425 472.691, 3306 472.096 C 3309.575 471.502, 3315.762 471.012, 3319.750 471.008 C 3327.356 471, 3327.370 470.990, 3327.048 465.920 C 3326.959 464.501, 3327.596 462.750, 3328.465 462.029 C 3329.379 461.270, 3329.800 459.945, 3329.463 458.885 C 3329.143 457.877, 3329.528 455.578, 3330.317 453.776 C 3331.107 451.974, 3331.822 448.813, 3331.908 446.750 L 3332.063 443 3320.031 443 C 3313.414 443, 3308 442.651, 3308 442.224 C 3308 441.796, 3296.192 441.306, 3281.759 441.134 C 3267.327 440.961, 3255.111 440.569, 3254.614 440.261 C 3254.117 439.954, 3243.987 439.547, 3232.105 439.357 C 3220.222 439.168, 3203.525 438.544, 3195 437.971 C 3186.475 437.398, 3171.400 436.771, 3161.500 436.577 C 3151.600 436.383, 3140.125 435.894, 3136 435.489 C 3131.875 435.085, 3120.625 434.664, 3111 434.554 C 3088.630 434.297, 3088.326 434.274, 3089.705 432.895 C 3090.391 432.209, 3096.814 431.679, 3106.655 431.495 C 3115.370 431.332, 3125.650 430.732, 3129.500 430.163 C 3133.350 429.594, 3142.125 429.046, 3149 428.945 C 3155.875 428.845, 3163.300 428.523, 3165.500 428.229 C 3167.700 427.936, 3176.137 427.517, 3184.250 427.298 C 3192.363 427.079, 3199 426.517, 3199 426.050 C 3199 425.121, 3200.301 425.060, 3219.545 425.088 C 3227.135 425.099, 3233.825 424.621, 3235.545 423.945 C 3237.170 423.306, 3243.675 422.600, 3250 422.375 C 3256.325 422.151, 3265.358 421.825, 3270.073 421.652 C 3274.789 421.478, 3279.073 421.073, 3279.595 420.750 C 3280.116 420.428, 3287.958 420.061, 3297.021 419.935 C 3306.085 419.809, 3314.040 419.286, 3314.701 418.771 C 3315.362 418.257, 3321.071 417.876, 3327.388 417.925 C 3335.415 417.987, 3339.100 417.647, 3339.625 416.797 C 3340.048 416.113, 3340.939 418.907, 3341.661 423.178 C 3345.745 447.357, 3360.936 465.440, 3384.165 473.773 C 3390.497 476.044, 3393.141 476.410, 3403.500 476.452 C 3413.501 476.492, 3416.661 476.111, 3422.470 474.166 C 3450.703 464.710, 3468.729 438.292, 3466.688 409.363 C 3465.599 393.945, 3459.325 380.537, 3447.726 368.848 C 3442.424 363.504, 3438.948 361.060, 3431.726 357.595 C 3426.652 355.160, 3420.115 352.681, 3417.201 352.084 C 3410.027 350.616, 3395.776 350.857, 3388.725 352.566 M 3392 360.500 C 3381.592 362.860, 3373.365 367.473, 3365.391 375.417 C 3358.156 382.626, 3354.734 388.161, 3351.429 398 C 3349.238 404.524, 3348.937 420.956, 3350.880 428 C 3358.143 454.333, 3384.144 471.603, 3410.920 467.878 C 3444.403 463.221, 3465.634 430.924, 3456.431 398.648 C 3451.568 381.594, 3438.178 367.707, 3421.107 362.014 C 3412.768 359.233, 3400.419 358.591, 3392 360.500 M 3363 396 L 3363 400 3369.500 400 L 3376 400 3376 418 L 3376 436 3380.500 436 L 3385 436 3385 418 L 3385 400 3391.500 400 L 3398 400 3398 396 L 3398 392 3380.500 392 L 3363 392 3363 396 M 3403 413.954 L 3403 436 3406.975 436 L 3410.949 436 3411.225 420.250 L 3411.500 404.500 3415.355 420.250 L 3419.209 436 3423.564 436 C 3428.562 436, 3427.833 437.474, 3432.964 417 L 3435.846 405.500 3436.173 420.500 L 3436.500 435.500 3440.750 435.807 L 3445 436.115 3445 414.057 L 3445 392 3438.155 392 L 3431.310 392 3428.014 404.250 C 3426.202 410.988, 3424.428 417.060, 3424.072 417.745 C 3423.717 418.430, 3421.848 413.030, 3419.920 405.745 L 3416.413 392.500 3409.707 392.204 L 3403 391.909 3403 413.954 M 2432.633 415.231 C 2434.776 418.740, 2593.338 598.052, 2594.073 597.797 C 2594.708 597.577, 2685.236 495.023, 2754.706 415.824 C 2756.081 414.257, 2745.641 414.142, 2594.017 414.055 C 2463.218 413.980, 2432.008 414.207, 2432.633 415.231 M 2256 573.194 C 2256 573.943, 2255.100 575.326, 2254 576.268 C 2252.900 577.210, 2252 578.669, 2252 579.510 C 2252 580.351, 2250.961 582.718, 2249.692 584.770 C 2248.422 586.821, 2246.606 590.075, 2245.655 592 C 2244.705 593.925, 2242.520 597.975, 2240.800 601 C 2236.856 607.935, 2230.989 618.864, 2227.378 626 C 2225.847 629.025, 2224.348 631.725, 2224.047 632 C 2223.196 632.777, 2219.380 639.759, 2215.302 648 C 2213.260 652.125, 2211.334 655.725, 2211.022 656 C 2209.602 657.250, 2207 662.079, 2207 663.465 C 2207 664.309, 2206.550 665, 2206 665 C 2205.450 665, 2205 665.900, 2205 667 C 2205 668.100, 2204.539 669, 2203.975 669 C 2203.412 669, 2202.500 670.237, 2201.949 671.750 C 2200.370 676.085, 2197.619 681, 2196.773 681 C 2196.348 681, 2196 681.900, 2196 683 C 2196 684.100, 2195.550 685, 2195 685 C 2194.450 685, 2194 685.845, 2194 686.878 C 2194 687.910, 2193.325 689.315, 2192.500 690 C 2191.675 690.685, 2191 691.827, 2191 692.539 C 2191 693.251, 2190.641 693.983, 2190.203 694.167 C 2189.764 694.350, 2187.254 698.888, 2184.624 704.250 C 2181.994 709.612, 2179.428 714, 2178.921 714 C 2178.415 714, 2178 714.718, 2178 715.596 C 2178 716.473, 2177.182 718.386, 2176.181 719.846 C 2175.181 721.306, 2173.125 724.975, 2171.614 728 C 2170.102 731.025, 2167.332 736.200, 2165.458 739.500 C 2163.584 742.800, 2161.115 747.300, 2159.971 749.500 C 2158.827 751.700, 2156.600 755.750, 2155.023 758.500 C 2153.446 761.250, 2150.994 765.838, 2149.574 768.696 L 2146.992 773.892 2147.246 900.650 L 2147.500 1027.408 2282.500 884.661 C 2356.750 806.150, 2417.409 741.688, 2417.298 741.412 C 2416.871 740.352, 2257.801 572.483, 2256.925 572.167 C 2256.416 571.983, 2256 572.446, 2256 573.194 M 2514.835 974.232 C 2471.628 1023.330, 2435.050 1064.963, 2433.550 1066.750 L 2430.822 1070 2593.494 1070 C 2691.136 1070, 2756.033 1069.635, 2755.833 1069.087 C 2755.407 1067.921, 2594.994 885.590, 2594.078 885.232 C 2593.702 885.085, 2558.042 925.135, 2514.835 974.232" stroke="none" fill="#0453a2" fill-rule="evenodd"/><path d="M 385 741.500 L 385 1074 698.750 1073.997 C 906.018 1073.994, 1016.403 1073.643, 1024 1072.962 C 1063.509 1069.421, 1098.152 1058.904, 1125.859 1042.037 C 1137.662 1034.852, 1145.046 1029.043, 1156.250 1018.126 L 1166 1008.626 1166 1041.313 L 1166 1074 1290 1074 L 1414 1074 1414 996.500 L 1414 919 1486.250 919.031 L 1558.500 919.062 1604.084 996.281 L 1649.668 1073.500 2038.748 1073.751 L 2427.828 1074.003 2431.670 1069.177 C 2439.698 1059.094, 2593.426 884.977, 2594.075 885.232 C 2594.587 885.434, 2721.987 1029.932, 2755.500 1068.323 L 2760.500 1074.051 2922.103 1073.775 L 3083.707 1073.500 2926.817 907.603 L 2769.928 741.706 2772.214 739.244 C 2773.471 737.891, 2844.122 663.144, 2929.216 573.142 L 3083.931 409.500 2922.216 409.228 L 2760.500 408.957 2756.500 413.675 C 2744.242 428.134, 2594.790 597.549, 2594.073 597.797 C 2593.384 598.036, 2441.400 426.161, 2430.500 412.817 L 2427.500 409.144 2163.759 409.072 L 1900.018 409 1899.759 460.998 L 1899.500 512.997 1892.500 503.755 C 1877.926 484.515, 1854.972 463.135, 1834.500 449.734 C 1820.590 440.628, 1795.438 428.671, 1778.500 423.111 C 1762.329 417.803, 1750.900 415.087, 1730.500 411.703 L 1717.500 409.547 1441.750 409.253 L 1166 408.958 1165.980 582.229 L 1165.961 755.500 1162.283 751 C 1154.368 741.315, 1133.915 721.328, 1122.474 712.097 L 1110.448 702.394 1115.787 695.947 C 1123.440 686.706, 1134.912 669.192, 1141.299 657 C 1155.700 629.507, 1161.982 604.874, 1161.994 575.856 C 1162.026 497.619, 1131.426 448.020, 1068.663 424.577 C 1048.841 417.172, 1023.425 412.126, 995.500 410.049 C 986.252 409.362, 880.256 409.007, 683.250 409.004 L 385 409 385 741.500 M 3095 431.699 C 3085.860 432.687, 3088.887 434.727, 3099.750 434.900 C 3105.367 434.990, 3106 434.797, 3106 433 C 3106 430.910, 3104.230 430.700, 3095 431.699 M 2147.005 741.391 C 2147.007 998.708, 2147.161 1027.112, 2148.547 1025.961 C 2152.734 1022.486, 2417.184 742.089, 2416.968 741.353 C 2416.731 740.546, 2277.099 592.547, 2253.416 568 C 2247.314 561.675, 2222.166 535.125, 2197.532 509 C 2172.898 482.875, 2151.451 460.159, 2149.873 458.521 L 2147.004 455.542 2147.005 741.391 M 633 606.460 L 633 642 756.750 641.983 C 890.576 641.964, 888.028 642.060, 898.769 636.617 C 909.247 631.308, 914 622.085, 914 607.067 C 914 595.595, 911.989 589.028, 906.728 583.321 C 901.927 578.112, 897.534 575.658, 888.781 573.297 C 883.069 571.755, 871.208 571.571, 757.750 571.261 L 633 570.920 633 606.460 M 1414 663.978 L 1414 709 1533.428 709 C 1657.427 709, 1663.031 708.831, 1673.886 704.770 C 1681.428 701.948, 1688.976 694.353, 1691.837 686.706 C 1698.132 669.882, 1695.707 643.092, 1686.904 632.219 C 1683.493 628.005, 1676.417 623.445, 1670 621.324 C 1664.821 619.613, 1657.189 619.491, 1539.250 619.231 L 1414 618.955 1414 663.978 M 1892.586 823.760 C 1878.013 843.278, 1857.719 862.377, 1836.801 876.260 L 1826.102 883.361 1828.301 887.032 C 1829.510 889.051, 1846.025 915.875, 1865 946.640 L 1899.500 1002.576 1899.760 955.864 C 1899.903 930.172, 1899.903 887.855, 1899.760 861.826 L 1899.500 814.500 1892.586 823.760 M 633 858.500 L 633 893 777.428 893 C 875.087 893, 924.361 892.651, 929.594 891.924 C 945.173 889.757, 954.543 883.977, 959.094 873.727 C 962.183 866.770, 962.440 852.200, 959.617 844.090 C 956.016 833.749, 946.863 827.482, 931.787 825.035 C 927.719 824.375, 873.867 824.012, 779.250 824.008 L 633 824 633 858.500 M 3090 855.774 C 3077.763 856.289, 3079.112 858.699, 3091.750 858.900 C 3096.571 858.977, 3098 858.671, 3098 857.559 C 3098 855.586, 3097.436 855.461, 3090 855.774 M 1926.466 1089.386 C 1905.605 1092.787, 1894.100 1099.709, 1888.463 1112.253 C 1886.148 1117.405, 1885.575 1120.296, 1885.197 1128.750 L 1884.738 1139 1869.869 1139 L 1855 1139 1855 1163.500 L 1855 1188 1870 1188 L 1885 1188 1885 1236.500 L 1885 1285 1914.500 1285 L 1944 1285 1944 1236.500 L 1944 1188 1970 1188 L 1996 1188 1996 1163.500 L 1996 1139 1970.500 1139 C 1953.362 1139, 1945 1138.656, 1945 1137.950 C 1945 1135.171, 1948.464 1130.794, 1952.271 1128.764 C 1956.261 1126.636, 1957.512 1126.520, 1974.388 1126.730 C 1984.226 1126.852, 1993.113 1127.219, 1994.138 1127.544 C 1995.909 1128.106, 1996 1127.213, 1996 1109.172 L 1996 1090.210 1991.750 1089.601 C 1982.138 1088.224, 1934.557 1088.067, 1926.466 1089.386 M 1292 1199.441 L 1292 1285 1324 1285 L 1356 1285 1356 1265 L 1356 1245 1396.340 1245 C 1433.216 1245, 1437.342 1244.831, 1444.391 1243.028 C 1465.296 1237.681, 1481.612 1222.378, 1488.133 1202 C 1491.136 1192.617, 1491.830 1173.830, 1489.553 1163.596 C 1485.471 1145.246, 1473.766 1129.902, 1457.938 1122.151 C 1441.852 1114.275, 1446.220 1114.646, 1364.750 1114.242 L 1292 1113.882 1292 1199.441 M 1573.040 1137.041 C 1544.890 1139.757, 1525.649 1147.301, 1511.990 1160.980 C 1503.720 1169.261, 1499.470 1176.372, 1495.841 1188 C 1493.784 1194.590, 1493.500 1197.502, 1493.500 1212 C 1493.500 1226.498, 1493.784 1229.410, 1495.841 1236 C 1499.472 1247.632, 1503.721 1254.736, 1512.087 1263.157 C 1523.990 1275.140, 1540.544 1282.382, 1564.500 1286.087 C 1576.145 1287.888, 1608.125 1287.585, 1621.398 1285.547 C 1657.906 1279.942, 1680.639 1262.865, 1687.354 1236 L 1688.729 1230.500 1659.866 1230.235 L 1631.003 1229.970 1627.132 1232.531 C 1620.399 1236.987, 1613.234 1239.085, 1601.482 1240.043 C 1584.575 1241.421, 1572.133 1239.612, 1563.428 1234.511 C 1559.163 1232.011, 1554 1225.855, 1554 1223.268 C 1554 1222.256, 1567.881 1222, 1622.652 1222 L 1691.304 1222 1690.676 1211.750 C 1688.485 1175.985, 1670.047 1151.512, 1638.173 1142.060 C 1621.981 1137.259, 1593.522 1135.066, 1573.040 1137.041 M 1799.539 1137.041 C 1784.227 1139.455, 1773.949 1144.253, 1764.007 1153.632 L 1757 1160.242 1757 1149.621 L 1757 1139 1727 1139 L 1697 1139 1697 1212 L 1697 1285 1727 1285 L 1757 1285 1757 1245.085 L 1757 1205.170 1762.250 1200.954 C 1769.156 1195.407, 1779.489 1190.495, 1788.898 1188.285 C 1799.737 1185.740, 1829.082 1185.764, 1840.983 1188.328 C 1845.648 1189.333, 1849.923 1190.233, 1850.483 1190.328 C 1851.144 1190.440, 1851.594 1181.830, 1851.767 1165.750 C 1851.915 1152.138, 1851.915 1140.999, 1851.767 1140.997 C 1851.620 1140.995, 1846.878 1140.097, 1841.229 1139 C 1829.292 1136.682, 1808.127 1135.688, 1799.539 1137.041 M 2077.040 1137.115 C 2032.221 1141.092, 2006.042 1159.910, 1999.440 1192.894 C 1997.045 1204.863, 1997.835 1227.664, 2000.986 1237.500 C 2005.476 1251.519, 2012.008 1261.062, 2022.310 1268.654 C 2040.413 1281.995, 2061.525 1287.253, 2097 1287.256 C 2132.133 1287.260, 2153.748 1281.876, 2171.690 1268.654 C 2182.150 1260.946, 2188.629 1251.382, 2193.153 1236.975 C 2195.242 1230.323, 2195.500 1227.573, 2195.500 1212 C 2195.500 1196.453, 2195.239 1193.663, 2193.159 1187 C 2186.405 1165.360, 2172.243 1151.405, 2149.019 1143.506 C 2130.342 1137.154, 2103.478 1134.768, 2077.040 1137.115 M 2305.193 1137.072 C 2289.944 1139.052, 2278.822 1144.255, 2268.756 1154.120 L 2262 1160.739 2262 1149.870 L 2262 1139 2232.500 1139 L 2203 1139 2203 1212 L 2203 1285 2232.500 1285 L 2262 1285 2262 1245.593 L 2262 1206.185 2267.143 1201.562 C 2273.233 1196.086, 2283.845 1190.758, 2293.528 1188.315 C 2304.149 1185.635, 2335.157 1185.822, 2347.750 1188.642 L 2357 1190.713 2357 1165.937 L 2357 1141.160 2350.250 1139.634 C 2336.131 1136.442, 2317.993 1135.411, 2305.193 1137.072 M 2474 1136.963 C 2457.293 1139.115, 2443.387 1144.988, 2430.250 1155.441 L 2422 1162.005 2422 1150.502 L 2422 1139 2392.500 1139 L 2363 1139 2363 1212 L 2363 1285 2392.500 1285 L 2422 1285 2422 1245.581 L 2422 1206.162 2427.750 1201.550 C 2439.573 1192.068, 2453.485 1187.168, 2465.171 1188.370 C 2476.913 1189.577, 2483.403 1194.372, 2486.644 1204.236 C 2488.128 1208.751, 2488.429 1214.870, 2488.761 1247.250 L 2489.148 1285 2518.563 1285 L 2547.977 1285 2548.239 1245.293 L 2548.500 1205.587 2554.500 1200.737 C 2566.659 1190.909, 2581.497 1186.438, 2594.144 1188.790 C 2602.776 1190.395, 2607.570 1193.850, 2610.839 1200.823 L 2613.500 1206.500 2613.803 1245.750 L 2614.107 1285 2644.140 1285 L 2674.172 1285 2673.752 1234.250 C 2673.287 1178.125, 2673.310 1178.343, 2666.524 1164.439 C 2660.296 1151.679, 2648.513 1142.764, 2632 1138.317 C 2622.681 1135.808, 2599.891 1136.035, 2586.881 1138.767 C 2570.785 1142.147, 2556.459 1148.987, 2543.388 1159.532 L 2540.276 1162.043 2536.159 1156.706 C 2529.526 1148.109, 2518.521 1141.289, 2506.769 1138.495 C 2498.914 1136.627, 2482.550 1135.862, 2474 1136.963 M 2757.500 1137.067 C 2738.582 1138.841, 2713.594 1143.724, 2695.832 1149.120 L 2689.098 1151.165 2691.412 1156.332 C 2692.684 1159.175, 2697.013 1168.634, 2701.031 1177.354 L 2708.336 1193.207 2711.418 1192.666 C 2743.018 1187.117, 2753.679 1186, 2775.057 1186 C 2801.679 1186, 2809.695 1189.040, 2812.352 1200.143 L 2812.984 1202.785 2806.819 1200.867 C 2795.093 1197.217, 2782.445 1195.749, 2763 1195.779 C 2725.848 1195.838, 2701.186 1202.777, 2687.908 1216.909 C 2679.660 1225.687, 2675.978 1237.926, 2677.934 1250.068 C 2681.414 1271.678, 2698.746 1284.147, 2729.313 1287.030 C 2746.527 1288.653, 2769.653 1286.511, 2784.542 1281.916 C 2791.672 1279.715, 2805.340 1273.277, 2810.250 1269.807 L 2813 1267.864 2813 1276.432 L 2813 1285 2842.573 1285 L 2872.147 1285 2871.761 1240.750 C 2871.398 1199.064, 2871.249 1196.036, 2869.195 1188.500 C 2861.389 1159.859, 2841.924 1144.061, 2807.558 1138.474 C 2795.924 1136.582, 2770.336 1135.863, 2757.500 1137.067 M 2991.845 1137.139 C 2974.704 1139.104, 2953.881 1146.482, 2941.572 1154.951 L 2937 1158.096 2937 1148.548 L 2937 1139 2907.500 1139 L 2878 1139 2878 1212 L 2878 1285 2907.500 1285 L 2937 1285 2937 1245.585 L 2937 1206.170 2942.035 1202.474 C 2961.924 1187.875, 2990.283 1183.828, 3006.145 1193.328 C 3010.384 1195.866, 3012.048 1197.684, 3014.471 1202.426 L 3017.500 1208.353 3017.805 1246.676 L 3018.109 1285 3048.149 1285 L 3078.189 1285 3077.756 1235.750 C 3077.347 1189.311, 3077.200 1186.054, 3075.186 1178.686 C 3072.145 1167.564, 3067.725 1159.908, 3060.381 1153.037 C 3045.727 1139.329, 3021.586 1133.730, 2991.845 1137.139 M 3166 1136.606 C 3131.972 1139.659, 3112.250 1147.185, 3098.265 1162.456 C 3086.795 1174.981, 3081.862 1189.504, 3081.775 1211 C 3081.708 1227.620, 3083.461 1236.440, 3089.130 1248 C 3099.071 1268.272, 3119.483 1280.745, 3150.602 1285.561 C 3163.650 1287.580, 3195.224 1287.870, 3208 1286.088 C 3249.029 1280.365, 3272.554 1261.833, 3278.522 1230.533 C 3279.252 1226.702, 3279.632 1223.214, 3279.366 1222.783 C 3279.100 1222.352, 3265.720 1222, 3249.633 1222 L 3220.385 1222 3217.165 1226.568 C 3211.056 1235.235, 3198.671 1238.607, 3176.073 1237.756 C 3150.061 1236.776, 3141.075 1230.160, 3141.022 1211.946 C 3141.004 1205.869, 3141.485 1203.426, 3143.483 1199.446 C 3148.181 1190.087, 3155.919 1187.004, 3176.571 1186.263 C 3199.726 1185.433, 3210.298 1188.325, 3217 1197.324 L 3220.500 1202.023 3250 1201.761 L 3279.500 1201.500 3279.197 1198 C 3278.048 1184.719, 3271.437 1170.533, 3261.984 1161.065 C 3249.589 1148.650, 3232.841 1141.322, 3209.355 1138.037 C 3200.900 1136.855, 3173.363 1135.946, 3166 1136.606 M 3364.040 1137.041 C 3335.931 1139.753, 3316.738 1147.277, 3302.946 1160.989 C 3289.439 1174.420, 3284.014 1189.036, 3284.014 1212 C 3284.014 1233.607, 3289.327 1248.862, 3301.314 1261.677 C 3317.829 1279.331, 3342.891 1287.334, 3381.500 1287.284 C 3410.488 1287.246, 3428.547 1283.905, 3445.933 1275.365 C 3462.365 1267.293, 3473.849 1253.253, 3478.336 1235.750 L 3479.810 1230 3450.743 1230 L 3421.675 1230 3417.045 1232.971 C 3410.055 1237.456, 3404.594 1239.028, 3392.500 1240.034 C 3369.251 1241.968, 3354.030 1237.757, 3347.158 1227.492 L 3343.817 1222.500 3413.051 1222.243 L 3482.285 1221.986 3481.608 1212.160 C 3480.702 1198.996, 3477.778 1187.285, 3472.831 1177 C 3469.534 1170.147, 3467.145 1166.918, 3460.500 1160.335 C 3444.346 1144.331, 3423.999 1137.616, 3388.500 1136.570 C 3380.250 1136.328, 3369.243 1136.539, 3364.040 1137.041 M 1356 1180 L 1356 1191 1388.577 1191 L 1421.154 1191 1424.077 1188.077 C 1426.447 1185.707, 1427 1184.297, 1427 1180.624 C 1427 1174.960, 1425.486 1171.543, 1422.343 1170.110 C 1420.719 1169.371, 1409.241 1169, 1387.953 1169 L 1356 1169 1356 1180 M 1583 1179.047 C 1578.325 1179.348, 1572.186 1180.381, 1569.357 1181.342 C 1564.553 1182.974, 1557 1188.907, 1557 1191.048 C 1557 1191.632, 1570.513 1192, 1592 1192 C 1612.499 1192, 1627 1191.621, 1627 1191.085 C 1627 1190.582, 1624.965 1188.379, 1622.479 1186.190 C 1615.296 1179.868, 1603.476 1177.729, 1583 1179.047 M 3373.500 1178.986 C 3362.479 1179.840, 3355.660 1182.340, 3350.630 1187.370 L 3346.500 1191.500 3381.904 1191.763 C 3401.376 1191.908, 3417.545 1191.788, 3417.835 1191.498 C 3418.919 1190.414, 3411.564 1184.059, 3406.907 1182.055 C 3402.570 1180.190, 3398.809 1179.591, 3385.500 1178.649 C 3383.300 1178.493, 3377.900 1178.645, 3373.500 1178.986 M 2077.369 1187.436 C 2069.521 1189.215, 2066.045 1191.045, 2062.203 1195.422 C 2058.540 1199.593, 2057.011 1204.476, 2057.011 1212 C 2057.011 1220.417, 2058.682 1224.992, 2063.423 1229.559 C 2069.203 1235.127, 2076.064 1237.045, 2092.616 1237.718 C 2118.361 1238.766, 2132.582 1233.369, 2135.940 1221.277 C 2137.302 1216.371, 2137.279 1207.556, 2135.890 1202.500 C 2134.364 1196.944, 2127.506 1190.554, 2120.783 1188.422 C 2113.510 1186.115, 2085.953 1185.489, 2077.369 1187.436 M 2755 1228.573 C 2740.363 1231.085, 2737 1233.017, 2737 1238.918 C 2737 1241.273, 2737.673 1243.299, 2738.791 1244.311 C 2746.046 1250.876, 2781.963 1248.006, 2807.250 1238.840 C 2812.337 1236.996, 2813 1236.441, 2813 1234.026 C 2813 1231.443, 2812.636 1231.230, 2806.250 1230.071 C 2799.671 1228.878, 2759.986 1227.718, 2755 1228.573" stroke="none" fill="#fbfbfb" fill-rule="evenodd"/></svg>